<?xml version="1.0" encoding="utf-8" standalone="no"?>
<!DOCTYPE svg PUBLIC "-//W3C//DTD SVG 1.1//EN"
  "http://www.w3.org/Graphics/SVG/1.1/DTD/svg11.dtd">
<!-- Created with matplotlib (https://matplotlib.org/) -->
<svg height="345.6pt" version="1.1" viewBox="0 0 460.8 345.6" width="460.8pt" xmlns="http://www.w3.org/2000/svg" xmlns:xlink="http://www.w3.org/1999/xlink">
 <defs>
  <style type="text/css">
*{stroke-linecap:butt;stroke-linejoin:round;}
  </style>
 </defs>
 <g id="figure_1">
  <g id="patch_1">
   <path d="M 0 345.6 
L 460.8 345.6 
L 460.8 0 
L 0 0 
z
" style="fill:#ffffff;"/>
  </g>
  <g id="axes_1">
   <g id="patch_2">
    <path d="M 57.6 307.584 
L 414.72 307.584 
L 414.72 41.472 
L 57.6 41.472 
z
" style="fill:#ffffff;"/>
   </g>
   <g id="matplotlib.axis_1">
    <g id="xtick_1">
     <g id="line2d_1">
      <defs>
       <path d="M 0 0 
L 0 3.5 
" id="ma86a4ed87a" style="stroke:#000000;stroke-width:0.8;"/>
      </defs>
      <g>
       <use style="stroke:#000000;stroke-width:0.8;" x="59.46" xlink:href="#ma86a4ed87a" y="307.584"/>
      </g>
     </g>
     <g id="text_1">
      <!-- 0 -->
      <defs>
       <path d="M 23.921875 1.8125 
Q 31.109375 1.8125 33.78125 9.671875 
Q 36.46875 17.53125 36.46875 32.421875 
Q 36.46875 44.28125 34.859375 51.375 
Q 31.84375 64.546875 23.53125 64.546875 
Q 15.234375 64.546875 12.15625 50.984375 
Q 10.546875 43.75 10.546875 31.9375 
Q 10.546875 20.84375 12.203125 14.203125 
Q 15.328125 1.8125 23.921875 1.8125 
z
M 23.78125 67.1875 
Q 35.015625 67.1875 41.21875 55.421875 
Q 46.140625 45.90625 46.140625 33.546875 
Q 46.140625 23.828125 43.109375 15.234375 
Q 37.40625 -0.921875 23.34375 -0.921875 
Q 13.71875 -0.921875 7.515625 7.8125 
Q 0.875 17.140625 0.875 33.15625 
Q 0.875 45.75 5.328125 54.828125 
Q 11.328125 67.1875 23.78125 67.1875 
z
" id="Times-Roman-48"/>
      </defs>
      <g transform="translate(56.46 322.8115)scale(0.12 -0.12)">
       <use xlink:href="#Times-Roman-48"/>
      </g>
     </g>
    </g>
    <g id="xtick_2">
     <g id="line2d_2">
      <g>
       <use style="stroke:#000000;stroke-width:0.8;" x="133.86" xlink:href="#ma86a4ed87a" y="307.584"/>
      </g>
     </g>
     <g id="text_2">
      <!-- 4 -->
      <defs>
       <path d="M 29.15625 57.03125 
L 5.171875 23.140625 
L 29.15625 23.140625 
z
M 32.375 67.09375 
L 37.015625 67.09375 
L 37.015625 23.140625 
L 47.21875 23.140625 
L 47.21875 16.65625 
L 37.015625 16.65625 
L 37.015625 0 
L 29.25 0 
L 29.25 16.65625 
L 1.125 16.65625 
L 1.125 23.140625 
z
" id="Times-Roman-52"/>
      </defs>
      <g transform="translate(130.86 322.8115)scale(0.12 -0.12)">
       <use xlink:href="#Times-Roman-52"/>
      </g>
     </g>
    </g>
    <g id="xtick_3">
     <g id="line2d_3">
      <g>
       <use style="stroke:#000000;stroke-width:0.8;" x="208.26" xlink:href="#ma86a4ed87a" y="307.584"/>
      </g>
     </g>
     <g id="text_3">
      <!-- 8 -->
      <defs>
       <path d="M 25.140625 1.65625 
Q 30.765625 1.65625 33.640625 4.78125 
Q 36.53125 7.90625 36.53125 12.59375 
Q 36.53125 17.921875 33.46875 21.21875 
Q 30.421875 24.515625 20.953125 31.203125 
Q 16.75 28.5625 14.84375 24.359375 
Q 12.9375 20.171875 12.9375 16.265625 
Q 12.9375 9.578125 16.375 5.609375 
Q 19.828125 1.65625 25.140625 1.65625 
z
M 25.78125 38.96875 
Q 30.375 42.1875 32.125 44.390625 
Q 35.15625 48.140625 35.15625 53.46875 
Q 35.15625 58.109375 32.296875 61.34375 
Q 29.4375 64.59375 23.640625 64.59375 
Q 19.140625 64.59375 16.203125 61.765625 
Q 13.28125 58.9375 13.28125 54.890625 
Q 13.28125 50.296875 16.71875 46.359375 
Q 20.171875 42.4375 25.78125 38.96875 
z
M 18.265625 33.296875 
Q 11.8125 38.484375 9.46875 41.546875 
Q 5.859375 46.234375 5.859375 51.90625 
Q 5.859375 58.34375 11.203125 62.828125 
Q 16.546875 67.328125 25.09375 67.328125 
Q 32.953125 67.328125 37.59375 63.078125 
Q 42.234375 58.84375 42.234375 53.21875 
Q 42.234375 47.515625 37.5 42.96875 
Q 34.765625 40.375 28.65625 37.015625 
Q 36.96875 30.859375 40.546875 26.296875 
Q 44.140625 21.734375 44.140625 15.53125 
Q 44.140625 8.5 38.84375 3.703125 
Q 33.546875 -1.078125 24.65625 -1.078125 
Q 16.703125 -1.078125 11.015625 3.34375 
Q 5.328125 7.765625 5.328125 14.984375 
Q 5.328125 21.1875 9.28125 25.921875 
Q 11.859375 29 18.265625 33.296875 
z
" id="Times-Roman-56"/>
      </defs>
      <g transform="translate(205.26 322.8115)scale(0.12 -0.12)">
       <use xlink:href="#Times-Roman-56"/>
      </g>
     </g>
    </g>
    <g id="xtick_4">
     <g id="line2d_4">
      <g>
       <use style="stroke:#000000;stroke-width:0.8;" x="282.66" xlink:href="#ma86a4ed87a" y="307.584"/>
      </g>
     </g>
     <g id="text_4">
      <!-- 12 -->
      <defs>
       <path d="M 29.59375 67.09375 
Q 29.78125 66.84375 29.796875 66.71875 
Q 29.828125 66.609375 29.828125 66.15625 
L 29.828125 7.375 
Q 29.828125 3.609375 31.828125 2.578125 
Q 33.84375 1.5625 39.3125 1.375 
L 39.3125 0 
L 11.765625 0 
L 11.765625 1.46875 
Q 17.671875 1.765625 19.484375 3.078125 
Q 21.296875 4.390625 21.296875 8.796875 
L 21.296875 54 
Q 21.296875 56.34375 20.703125 57.5625 
Q 20.125 58.796875 18.171875 58.796875 
Q 16.890625 58.796875 14.859375 58.078125 
Q 12.84375 57.375 11.078125 56.59375 
L 11.078125 57.953125 
L 29 67.09375 
L 29.59375 67.09375 
z
" id="Times-Roman-49"/>
       <path d="M 2.984375 1.125 
Q 20.84375 19.671875 27.234375 28.359375 
Q 33.640625 37.0625 33.640625 45.3125 
Q 33.640625 52.546875 29.734375 56.328125 
Q 25.828125 60.109375 20.40625 60.109375 
Q 13.71875 60.109375 9.578125 55.21875 
Q 7.28125 52.546875 5.171875 46.96875 
L 3.078125 47.40625 
Q 5.515625 58.640625 11.34375 63.015625 
Q 17.1875 67.390625 23.875 67.390625 
Q 32.125 67.390625 37.21875 62.1875 
Q 42.328125 56.984375 42.328125 49.46875 
Q 42.328125 41.453125 36.8125 34.03125 
Q 31.296875 26.609375 12.84375 7.625 
L 35.25 7.625 
Q 39.9375 7.625 41.84375 8.734375 
Q 43.75 9.859375 46.140625 14.203125 
L 47.40625 13.625 
L 42 0 
L 2.984375 0 
z
" id="Times-Roman-50"/>
      </defs>
      <g transform="translate(276.66 322.8115)scale(0.12 -0.12)">
       <use xlink:href="#Times-Roman-49"/>
       <use x="50" xlink:href="#Times-Roman-50"/>
      </g>
     </g>
    </g>
    <g id="xtick_5">
     <g id="line2d_5">
      <g>
       <use style="stroke:#000000;stroke-width:0.8;" x="357.06" xlink:href="#ma86a4ed87a" y="307.584"/>
      </g>
     </g>
     <g id="text_5">
      <!-- 16 -->
      <defs>
       <path d="M 46.78125 22.21875 
Q 46.78125 13.28125 41.03125 6.09375 
Q 35.296875 -1.078125 26.125 -1.078125 
Q 17.53125 -1.078125 10.46875 6.984375 
Q 3.421875 15.046875 3.421875 28.421875 
Q 3.421875 45.65625 17.09375 58.015625 
Q 29.296875 68.359375 44.53125 68.359375 
L 44.78125 66.75 
Q 38.671875 65.625 34.25 63.6875 
Q 29.828125 61.765625 26.375 58.296875 
Q 22.796875 54.78125 19.671875 49.359375 
Q 16.546875 43.953125 15.375 38.625 
Q 18.40625 40.484375 20.609375 41.359375 
Q 24.515625 42.921875 28.46875 42.921875 
Q 36.234375 42.921875 41.5 37.546875 
Q 46.78125 32.171875 46.78125 22.21875 
z
M 37.84375 18.453125 
Q 37.84375 24.953125 35.796875 29.984375 
Q 32.375 38.375 24.171875 38.375 
Q 16.609375 38.375 14.109375 33.890625 
Q 12.640625 31.25 12.640625 25.09375 
Q 12.640625 17.140625 16.03125 9.515625 
Q 19.4375 1.90625 26.765625 1.90625 
Q 32.5625 1.90625 35.203125 6.859375 
Q 37.84375 11.8125 37.84375 18.453125 
z
" id="Times-Roman-54"/>
      </defs>
      <g transform="translate(351.06 322.8115)scale(0.12 -0.12)">
       <use xlink:href="#Times-Roman-49"/>
       <use x="50" xlink:href="#Times-Roman-54"/>
      </g>
     </g>
    </g>
    <g id="text_6">
     <!-- $k$ (time index) -->
     <defs>
      <path d="M 18.3125 75.984375 
L 27.296875 75.984375 
L 18.703125 31.6875 
L 49.515625 54.6875 
L 61.1875 54.6875 
L 26.8125 28.515625 
L 51.90625 0 
L 41.015625 0 
L 17.671875 26.703125 
L 12.5 0 
L 3.515625 0 
z
" id="DejaVuSans-Oblique-107"/>
      <path id="Times-Roman-32"/>
      <path d="M 4.59375 25.09375 
Q 4.59375 42.09375 14.75 54.9375 
Q 21 62.796875 29.5 67.578125 
L 30.421875 65.96875 
Q 22.5625 59.71875 19.1875 53.8125 
Q 13.28125 43.5 13.28125 26.375 
Q 13.28125 13.671875 15.53125 5.421875 
Q 19.484375 -9.03125 30.421875 -16.21875 
L 29.15625 -17.828125 
Q 23.140625 -14.9375 16.15625 -6.546875 
Q 4.59375 7.375 4.59375 25.09375 
z
" id="Times-Roman-40"/>
      <path d="M 25.4375 45.015625 
L 25.4375 41.5 
L 15.484375 41.5 
L 15.375 13.375 
Q 15.375 9.671875 16.015625 7.765625 
Q 17.1875 4.390625 20.609375 4.390625 
Q 22.359375 4.390625 23.65625 5.21875 
Q 24.953125 6.0625 26.609375 7.859375 
L 27.875 6.78125 
L 26.8125 5.328125 
Q 24.265625 1.90625 21.4375 0.484375 
Q 18.609375 -0.921875 15.96875 -0.921875 
Q 10.203125 -0.921875 8.15625 4.203125 
Q 7.03125 6.984375 7.03125 11.921875 
L 7.03125 41.5 
L 1.703125 41.5 
Q 1.46875 41.65625 1.34375 41.796875 
Q 1.21875 41.9375 1.21875 42.1875 
Q 1.21875 42.671875 1.4375 42.9375 
Q 1.65625 43.21875 2.828125 44.1875 
Q 6.203125 46.96875 7.6875 48.703125 
Q 9.1875 50.4375 14.703125 57.859375 
Q 15.328125 57.859375 15.453125 57.765625 
Q 15.578125 57.671875 15.578125 57.03125 
L 15.578125 45.015625 
z
" id="Times-Roman-116"/>
      <path d="M 8.203125 63.03125 
Q 8.203125 65.140625 9.671875 66.65625 
Q 11.140625 68.171875 13.28125 68.171875 
Q 15.375 68.171875 16.859375 66.671875 
Q 18.359375 65.1875 18.359375 63.03125 
Q 18.359375 60.9375 16.859375 59.4375 
Q 15.375 57.953125 13.28125 57.953125 
Q 11.140625 57.953125 9.671875 59.4375 
Q 8.203125 60.9375 8.203125 63.03125 
z
M 1.953125 1.375 
Q 7.171875 1.859375 8.53125 3.140625 
Q 9.90625 4.4375 9.90625 10.15625 
L 9.90625 33.453125 
Q 9.90625 36.625 9.46875 37.84375 
Q 8.734375 39.84375 6.390625 39.84375 
Q 5.859375 39.84375 5.34375 39.75 
Q 4.828125 39.65625 2.390625 38.96875 
L 2.390625 40.484375 
L 4.5 41.15625 
Q 13.03125 43.953125 16.40625 45.359375 
Q 17.78125 45.953125 18.171875 45.953125 
Q 18.265625 45.609375 18.265625 45.21875 
L 18.265625 10.15625 
Q 18.265625 4.59375 19.609375 3.171875 
Q 20.953125 1.765625 25.6875 1.375 
L 25.6875 0 
L 1.953125 0 
z
" id="Times-Roman-105"/>
      <path d="M 1.609375 1.265625 
Q 5.421875 1.609375 6.6875 2.546875 
Q 8.640625 3.953125 8.640625 8.203125 
L 8.640625 33.453125 
Q 8.640625 37.0625 7.6875 38.1875 
Q 6.734375 39.3125 4.546875 39.3125 
Q 3.515625 39.3125 3 39.203125 
Q 2.484375 39.109375 1.8125 38.875 
L 1.8125 40.578125 
L 5.328125 41.75 
Q 7.234375 42.390625 11.578125 44.046875 
Q 15.921875 45.703125 16.15625 45.703125 
Q 16.40625 45.703125 16.453125 45.453125 
Q 16.5 45.21875 16.5 44.53125 
L 16.5 37.9375 
Q 21.34375 42.328125 24.859375 44.015625 
Q 28.375 45.703125 32.078125 45.703125 
Q 37.109375 45.703125 40.09375 42.28125 
Q 41.65625 40.4375 42.671875 37.25 
Q 46.296875 40.921875 48.96875 42.671875 
Q 53.609375 45.703125 58.453125 45.703125 
Q 66.3125 45.703125 68.953125 39.3125 
Q 70.453125 35.6875 70.453125 27.875 
L 70.453125 7.625 
Q 70.453125 4.15625 71.984375 2.90625 
Q 73.53125 1.65625 77.546875 1.265625 
L 77.546875 0 
L 55.515625 0 
L 55.515625 1.375 
Q 59.765625 1.765625 61.109375 3.078125 
Q 62.453125 4.390625 62.453125 8.453125 
L 62.453125 29.5 
Q 62.453125 34.234375 61.421875 36.46875 
Q 59.625 40.484375 54.34375 40.484375 
Q 51.171875 40.484375 48.046875 38.375 
Q 46.234375 37.15625 43.609375 34.46875 
L 43.609375 9.46875 
Q 43.609375 5.515625 45 3.46875 
Q 46.390625 1.421875 50.875 1.265625 
L 50.875 0 
L 28.46875 0 
L 28.46875 1.265625 
Q 33.109375 1.859375 34.375 3.515625 
Q 35.640625 5.171875 35.640625 11.671875 
L 35.640625 25.34375 
Q 35.640625 32.859375 34.671875 35.6875 
Q 33.0625 40.484375 27.828125 40.484375 
Q 24.859375 40.484375 21.96875 38.84375 
Q 19.09375 37.203125 16.890625 34.578125 
L 16.890625 7.859375 
Q 16.890625 4.15625 18.1875 2.734375 
Q 19.484375 1.3125 23.828125 1.265625 
L 23.828125 0 
L 1.609375 0 
z
" id="Times-Roman-109"/>
      <path d="M 22.90625 45.796875 
Q 29.78125 45.796875 34.953125 41.03125 
Q 40.140625 36.28125 40.140625 27.546875 
L 9.125 27.546875 
Q 9.625 16.21875 14.25 11.03125 
Q 18.890625 5.859375 25.25 5.859375 
Q 30.375 5.859375 33.890625 8.546875 
Q 37.40625 11.234375 40.375 16.15625 
L 42.09375 15.578125 
Q 40.09375 9.375 34.59375 4.09375 
Q 29.109375 -1.171875 21.140625 -1.171875 
Q 11.96875 -1.171875 6.953125 5.765625 
Q 1.953125 12.703125 1.953125 21.734375 
Q 1.953125 31.546875 7.765625 38.671875 
Q 13.578125 45.796875 22.90625 45.796875 
z
M 20.0625 42.234375 
Q 14.5 42.234375 11.578125 37.3125 
Q 10.015625 34.671875 9.328125 30.671875 
L 29.9375 30.671875 
Q 29.390625 35.546875 28.078125 37.9375 
Q 25.6875 42.234375 20.0625 42.234375 
z
M 22.265625 45.796875 
z
" id="Times-Roman-101"/>
      <path d="M 1.8125 1.375 
Q 5.28125 1.8125 6.671875 3.09375 
Q 8.0625 4.390625 8.0625 8.890625 
L 8.0625 33.640625 
Q 8.0625 36.765625 7.46875 38.03125 
Q 6.546875 39.890625 3.65625 39.890625 
Q 3.21875 39.890625 2.75 39.84375 
Q 2.296875 39.796875 1.609375 39.703125 
L 1.609375 41.40625 
Q 3.609375 42 11.078125 44.4375 
L 15.671875 45.953125 
Q 16.015625 45.953125 16.078125 45.703125 
Q 16.15625 45.453125 16.15625 45.015625 
L 16.15625 37.84375 
Q 20.65625 42.046875 23.1875 43.609375 
Q 27 46 31.109375 46 
Q 34.421875 46 37.15625 44.09375 
Q 42.4375 40.375 42.4375 30.859375 
L 42.4375 8.0625 
Q 42.4375 4.546875 43.84375 2.984375 
Q 45.265625 1.421875 48.578125 1.375 
L 48.578125 0 
L 27.734375 0 
L 27.734375 1.375 
Q 31.296875 1.859375 32.703125 3.34375 
Q 34.125 4.828125 34.125 9.8125 
L 34.125 30.671875 
Q 34.125 34.859375 32.5625 37.609375 
Q 31 40.375 26.8125 40.375 
Q 23.921875 40.375 20.953125 38.421875 
Q 19.28125 37.3125 16.65625 34.71875 
L 16.65625 7.375 
Q 16.65625 3.859375 18.21875 2.65625 
Q 19.78125 1.46875 23.140625 1.375 
L 23.140625 0 
L 1.8125 0 
z
M 25.046875 46 
z
" id="Times-Roman-110"/>
      <path d="M 23.6875 46.140625 
Q 27.25 46.140625 30.21875 44.578125 
Q 32.171875 43.5625 33.984375 41.75 
L 33.984375 57.28125 
Q 33.984375 60.25 33.328125 61.375 
Q 32.671875 62.5 30.171875 62.5 
Q 29.59375 62.5 29.15625 62.453125 
Q 28.71875 62.40625 27.203125 62.25 
L 27.203125 63.875 
L 31.203125 64.890625 
Q 33.40625 65.484375 35.59375 66.109375 
Q 37.796875 66.75 39.453125 67.328125 
Q 40.234375 67.578125 42.046875 68.265625 
L 42.328125 68.171875 
L 42.234375 63.03125 
Q 42.1875 60.25 42.140625 57.296875 
Q 42.09375 54.34375 42.09375 51.46875 
L 42 11.578125 
Q 42 8.40625 42.78125 7.125 
Q 43.5625 5.859375 46.921875 5.859375 
Q 47.46875 5.859375 48 5.875 
Q 48.53125 5.90625 49.078125 6 
L 49.078125 4.390625 
Q 48.78125 4.296875 42 1.953125 
L 34.328125 -0.921875 
L 33.984375 -0.484375 
L 33.984375 5.515625 
Q 31.25 2.546875 29.25 1.265625 
Q 25.6875 -0.921875 21 -0.921875 
Q 12.703125 -0.921875 7.546875 5.5 
Q 2.390625 11.921875 2.390625 20.359375 
Q 2.390625 30.953125 8.5625 38.546875 
Q 14.75 46.140625 23.6875 46.140625 
z
M 25.484375 4.34375 
Q 29.296875 4.34375 31.640625 6.59375 
Q 33.984375 8.84375 33.984375 10.84375 
L 33.984375 31.78125 
Q 33.984375 38.140625 30.59375 40.75 
Q 27.203125 43.359375 23.96875 43.359375 
Q 17.828125 43.359375 14.40625 37.90625 
Q 10.984375 32.46875 10.984375 24.515625 
Q 10.984375 16.65625 14.625 10.5 
Q 18.265625 4.34375 25.484375 4.34375 
z
" id="Times-Roman-100"/>
      <path d="M 23.140625 44.875 
L 23.140625 43.5 
Q 21.296875 43.453125 20 42.984375 
Q 18.703125 42.53125 18.703125 41.0625 
Q 18.703125 40.140625 21.296875 35.84375 
Q 22.65625 33.59375 24.75 30.328125 
Q 27.640625 34.28125 29.046875 36.53125 
Q 31.453125 40.140625 31.453125 41.21875 
Q 31.453125 42.484375 30.421875 42.921875 
Q 29.390625 43.359375 27.546875 43.5 
L 27.546875 44.875 
L 43.265625 44.875 
L 43.265625 43.5 
Q 40.765625 43.3125 38.609375 42.15625 
Q 36.46875 41.015625 35.15625 39.109375 
L 26.8125 27.046875 
L 39.703125 7.515625 
Q 42.1875 3.71875 43.921875 2.59375 
Q 45.65625 1.46875 47.90625 1.375 
L 47.90625 0 
L 27.734375 0 
L 27.734375 1.375 
L 29.15625 1.46875 
Q 30.28125 1.5625 31.03125 2.140625 
Q 31.78125 2.734375 31.78125 3.609375 
Q 31.78125 4.546875 29.9375 7.71875 
Q 29.046875 9.28125 27.296875 11.96875 
Q 26.46875 13.28125 24.828125 15.625 
Q 23.1875 17.96875 22.078125 19.625 
L 14.203125 7.375 
Q 12.796875 5.171875 12.453125 4.4375 
Q 12.109375 3.71875 12.109375 3.21875 
Q 12.109375 2.296875 12.859375 2 
Q 13.625 1.703125 16.15625 1.375 
L 16.15625 0 
L 1.703125 0 
L 1.703125 1.375 
Q 4.34375 1.90625 5.609375 2.734375 
Q 6.890625 3.5625 8.984375 6.59375 
L 20.359375 23.140625 
L 10.984375 37.359375 
Q 8.15625 41.609375 7.078125 42.390625 
Q 6 43.171875 2.390625 43.5 
L 2.390625 44.875 
z
" id="Times-Roman-120"/>
      <path d="M 28.46875 24.609375 
Q 28.46875 17.328125 26.5625 10.828125 
Q 24.65625 4.34375 21 -1.421875 
Q 17.140625 -7.5625 10.6875 -12.890625 
Q 6.453125 -16.40625 3.5625 -17.828125 
L 2.640625 -16.21875 
Q 10.15625 -10.5 13.625 -4.546875 
Q 19.78125 6 19.78125 23.34375 
Q 19.78125 37.359375 16.9375 46.234375 
Q 12.984375 58.796875 2.640625 65.96875 
L 3.90625 67.578125 
Q 11.625 63.28125 18.265625 54.59375 
Q 28.46875 41.21875 28.46875 24.609375 
z
" id="Times-Roman-41"/>
     </defs>
     <g transform="translate(195.91 339.535875)scale(0.14 -0.14)">
      <use transform="translate(0 0.015625)" xlink:href="#DejaVuSans-Oblique-107"/>
      <use transform="translate(57.910156 0.015625)" xlink:href="#Times-Roman-32"/>
      <use transform="translate(82.910156 0.015625)" xlink:href="#Times-Roman-40"/>
      <use transform="translate(116.210938 0.015625)" xlink:href="#Times-Roman-116"/>
      <use transform="translate(143.994141 0.015625)" xlink:href="#Times-Roman-105"/>
      <use transform="translate(171.777344 0.015625)" xlink:href="#Times-Roman-109"/>
      <use transform="translate(249.560547 0.015625)" xlink:href="#Times-Roman-101"/>
      <use transform="translate(293.945312 0.015625)" xlink:href="#Times-Roman-32"/>
      <use transform="translate(318.945312 0.015625)" xlink:href="#Times-Roman-105"/>
      <use transform="translate(346.728516 0.015625)" xlink:href="#Times-Roman-110"/>
      <use transform="translate(396.728516 0.015625)" xlink:href="#Times-Roman-100"/>
      <use transform="translate(446.728516 0.015625)" xlink:href="#Times-Roman-101"/>
      <use transform="translate(491.113281 0.015625)" xlink:href="#Times-Roman-120"/>
      <use transform="translate(541.113281 0.015625)" xlink:href="#Times-Roman-41"/>
     </g>
    </g>
   </g>
   <g id="matplotlib.axis_2">
    <g id="ytick_1">
     <g id="line2d_6">
      <defs>
       <path d="M 0 0 
L -3.5 0 
" id="mf540773636" style="stroke:#000000;stroke-width:0.8;"/>
      </defs>
      <g>
       <use style="stroke:#000000;stroke-width:0.8;" x="57.6" xlink:href="#mf540773636" y="307.584"/>
      </g>
     </g>
     <g id="text_7">
      <!-- −2 -->
      <defs>
       <path d="M 2.984375 28.65625 
L 53.46875 28.65625 
L 53.46875 21.828125 
L 2.984375 21.828125 
z
" id="Times-Roman-8722"/>
      </defs>
      <g transform="translate(37.833125 311.69775)scale(0.12 -0.12)">
       <use xlink:href="#Times-Roman-8722"/>
       <use x="56.396484" xlink:href="#Times-Roman-50"/>
      </g>
     </g>
    </g>
    <g id="ytick_2">
     <g id="line2d_7">
      <g>
       <use style="stroke:#000000;stroke-width:0.8;" x="57.6" xlink:href="#mf540773636" y="249.256742"/>
      </g>
     </g>
     <g id="text_8">
      <!-- −1 -->
      <g transform="translate(37.833125 253.370492)scale(0.12 -0.12)">
       <use xlink:href="#Times-Roman-8722"/>
       <use x="56.396484" xlink:href="#Times-Roman-49"/>
      </g>
     </g>
    </g>
    <g id="ytick_3">
     <g id="line2d_8">
      <g>
       <use style="stroke:#000000;stroke-width:0.8;" x="57.6" xlink:href="#mf540773636" y="190.929484"/>
      </g>
     </g>
     <g id="text_9">
      <!-- 0 -->
      <g transform="translate(44.6 195.043234)scale(0.12 -0.12)">
       <use xlink:href="#Times-Roman-48"/>
      </g>
     </g>
    </g>
    <g id="ytick_4">
     <g id="line2d_9">
      <g>
       <use style="stroke:#000000;stroke-width:0.8;" x="57.6" xlink:href="#mf540773636" y="132.602226"/>
      </g>
     </g>
     <g id="text_10">
      <!-- 1 -->
      <g transform="translate(44.6 136.715976)scale(0.12 -0.12)">
       <use xlink:href="#Times-Roman-49"/>
      </g>
     </g>
    </g>
    <g id="ytick_5">
     <g id="line2d_10">
      <g>
       <use style="stroke:#000000;stroke-width:0.8;" x="57.6" xlink:href="#mf540773636" y="74.274968"/>
      </g>
     </g>
     <g id="text_11">
      <!-- 2 -->
      <g transform="translate(44.6 78.388718)scale(0.12 -0.12)">
       <use xlink:href="#Times-Roman-50"/>
      </g>
     </g>
    </g>
    <g id="text_12">
     <!-- n -step prediction of states and outputs -->
     <defs>
      <path d="M 3.90625 25.6875 
L 28.46875 25.6875 
L 28.46875 19.4375 
L 3.90625 19.4375 
z
" id="Times-Roman-45"/>
      <path d="M 5.171875 15.375 
L 6.78125 15.375 
Q 7.90625 9.8125 9.8125 6.84375 
Q 13.234375 1.375 19.828125 1.375 
Q 23.484375 1.375 25.609375 3.390625 
Q 27.734375 5.421875 27.734375 8.640625 
Q 27.734375 10.6875 26.515625 12.59375 
Q 25.296875 14.5 22.21875 16.3125 
L 16.75 19.4375 
Q 10.75 22.65625 7.90625 25.921875 
Q 5.078125 29.203125 5.078125 33.640625 
Q 5.078125 39.109375 8.984375 42.625 
Q 12.890625 46.140625 18.796875 46.140625 
Q 21.390625 46.140625 24.484375 45.15625 
Q 27.59375 44.1875 27.984375 44.1875 
Q 28.859375 44.1875 29.25 44.421875 
Q 29.640625 44.671875 29.9375 45.21875 
L 31.109375 45.21875 
L 31.453125 31.59375 
L 29.9375 31.59375 
Q 28.953125 36.328125 27.296875 38.96875 
Q 24.265625 43.84375 18.5625 43.84375 
Q 15.140625 43.84375 13.1875 41.75 
Q 11.234375 39.65625 11.234375 36.8125 
Q 11.234375 32.328125 17.96875 28.8125 
L 24.421875 25.34375 
Q 34.8125 19.671875 34.8125 12.15625 
Q 34.8125 6.390625 30.484375 2.734375 
Q 26.171875 -0.921875 19.1875 -0.921875 
Q 16.265625 -0.921875 12.546875 0.046875 
Q 8.84375 1.03125 8.15625 1.03125 
Q 7.5625 1.03125 7.125 0.609375 
Q 6.6875 0.203125 6.453125 -0.390625 
L 5.171875 -0.390625 
z
M 19.484375 46.140625 
z
" id="Times-Roman-115"/>
      <path d="M 15.96875 8.984375 
Q 17.234375 5.671875 19.75 4.03125 
Q 22.265625 2.390625 25.6875 2.390625 
Q 30.953125 2.390625 34.6875 7.640625 
Q 38.421875 12.890625 38.421875 22.265625 
Q 38.421875 31.25 34.546875 35.6875 
Q 30.671875 40.140625 25.53125 40.140625 
Q 21.921875 40.140625 18.9375 37.90625 
Q 15.96875 35.6875 15.96875 33.546875 
L 15.96875 8.984375 
z
M 0.4375 -20.171875 
Q 5.03125 -19.875 6.265625 -18.203125 
Q 7.515625 -16.546875 7.515625 -12.984375 
L 7.515625 33.890625 
Q 7.515625 37.59375 6.609375 38.640625 
Q 5.71875 39.703125 3.21875 39.703125 
Q 2.6875 39.703125 2.21875 39.640625 
Q 1.765625 39.59375 0.875 39.453125 
L 0.875 41.0625 
L 5.515625 42.578125 
Q 5.765625 42.625 15.328125 45.953125 
Q 15.578125 45.953125 15.703125 45.734375 
Q 15.828125 45.515625 15.828125 45.21875 
L 15.828125 38.625 
Q 19.046875 41.84375 21.484375 43.40625 
Q 25.875 46.140625 30.515625 46.140625 
Q 37.25 46.140625 42.109375 40.40625 
Q 46.96875 34.671875 46.96875 24.703125 
Q 46.96875 14.9375 41.125 6.96875 
Q 35.296875 -0.984375 26.46875 -0.984375 
Q 23.734375 -0.984375 21.734375 -0.296875 
Q 18.609375 0.734375 15.96875 3.46875 
L 15.96875 -12.5 
Q 15.96875 -17.4375 17.578125 -18.546875 
Q 19.1875 -19.671875 24.609375 -20.0625 
L 24.609375 -21.78125 
L 0.4375 -21.78125 
z
" id="Times-Roman-112"/>
      <path d="M 0.4375 1.609375 
Q 4.9375 2 6.390625 3.1875 
Q 7.859375 4.390625 7.859375 8.296875 
L 7.859375 30.328125 
Q 7.859375 35.15625 6.953125 37.234375 
Q 6.0625 39.3125 3.65625 39.3125 
Q 3.171875 39.3125 2.359375 39.1875 
Q 1.5625 39.0625 0.6875 38.875 
L 0.6875 40.484375 
Q 3.46875 41.453125 6.390625 42.46875 
Q 9.328125 43.5 10.453125 43.953125 
Q 12.890625 44.875 15.484375 46.046875 
Q 15.828125 46.046875 15.890625 45.796875 
Q 15.96875 45.5625 15.96875 44.78125 
L 15.96875 36.765625 
Q 19.09375 41.109375 22 43.546875 
Q 24.90625 46 28.03125 46 
Q 30.515625 46 32.078125 44.5 
Q 33.640625 43.015625 33.640625 40.765625 
Q 33.640625 38.765625 32.4375 37.390625 
Q 31.25 36.03125 29.4375 36.03125 
Q 27.59375 36.03125 25.703125 37.734375 
Q 23.828125 39.453125 22.75 39.453125 
Q 21.046875 39.453125 18.546875 36.6875 
Q 16.0625 33.9375 16.0625 31 
L 16.0625 8.984375 
Q 16.0625 4.78125 18.015625 3.140625 
Q 19.96875 1.515625 24.515625 1.609375 
L 24.515625 0 
L 0.4375 0 
z
" id="Times-Roman-114"/>
      <path d="M 24.859375 46.046875 
Q 30.953125 46.046875 35.375 42.890625 
Q 39.796875 39.75 39.796875 35.984375 
Q 39.796875 34.375 38.671875 32.984375 
Q 37.546875 31.59375 35.203125 31.59375 
Q 33.5 31.59375 32.203125 32.765625 
Q 30.90625 33.9375 30.328125 36.1875 
L 29.734375 38.53125 
Q 29.109375 41.109375 27.546875 42.1875 
Q 25.921875 43.21875 23.296875 43.21875 
Q 17.71875 43.21875 13.890625 38.359375 
Q 10.0625 33.5 10.0625 25.4375 
Q 10.0625 18.0625 14.28125 12.203125 
Q 18.5 6.34375 25.6875 6.34375 
Q 30.765625 6.34375 34.71875 9.671875 
Q 36.96875 11.578125 39.796875 15.71875 
L 41.15625 14.890625 
Q 38.375 9.03125 35.296875 5.609375 
Q 29.390625 -0.921875 21.625 -0.921875 
Q 14.015625 -0.921875 8.15625 5.078125 
Q 2.296875 11.078125 2.296875 21.390625 
Q 2.296875 31.5 8.6875 38.765625 
Q 15.09375 46.046875 24.859375 46.046875 
z
M 22.703125 46.046875 
z
" id="Times-Roman-99"/>
      <path d="M 2.546875 22.65625 
Q 2.546875 32.375 8.71875 39.078125 
Q 14.890625 45.796875 24.609375 45.796875 
Q 34.28125 45.796875 40.625 39.453125 
Q 46.96875 33.109375 46.96875 22.5625 
Q 46.96875 12.84375 40.8125 5.65625 
Q 34.671875 -1.515625 24.90625 -1.515625 
Q 15.53125 -1.515625 9.03125 5.359375 
Q 2.546875 12.25 2.546875 22.65625 
z
M 23.25 42.875 
Q 19.390625 42.875 16.546875 40.328125 
Q 11.671875 35.890625 11.671875 25 
Q 11.671875 16.3125 15.59375 8.78125 
Q 19.53125 1.265625 26.515625 1.265625 
Q 31.984375 1.265625 34.9375 6.296875 
Q 37.890625 11.328125 37.890625 19.484375 
Q 37.890625 27.9375 34.125 35.40625 
Q 30.375 42.875 23.25 42.875 
z
M 25.046875 45.796875 
z
" id="Times-Roman-111"/>
      <path d="M 1.953125 1.375 
Q 7.125 1.609375 8.765625 3.296875 
Q 10.40625 4.984375 10.40625 10.40625 
L 10.40625 41.75 
L 2.046875 41.75 
L 2.046875 45.015625 
L 10.40625 45.015625 
Q 10.40625 52.734375 12.5 58.0625 
Q 16.5 68.265625 27.203125 68.265625 
Q 31.5 68.265625 34.890625 66.546875 
Q 38.28125 64.84375 38.28125 61.96875 
Q 38.28125 60.359375 37.109375 59.078125 
Q 35.9375 57.8125 34.28125 57.8125 
Q 32.859375 57.8125 31.828125 58.65625 
Q 30.8125 59.515625 29.390625 61.671875 
L 28.5625 62.9375 
Q 27.875 63.96875 26.953125 64.671875 
Q 26.03125 65.375 24.359375 65.375 
Q 20.65625 65.375 19.34375 61.71875 
Q 18.609375 59.765625 18.609375 56.59375 
L 18.609375 45.015625 
L 30.859375 45.015625 
L 30.859375 41.75 
L 18.703125 41.75 
L 18.703125 10.40625 
Q 18.703125 4.890625 20.1875 3.34375 
Q 21.6875 1.8125 27.984375 1.375 
L 27.984375 0 
L 1.953125 0 
z
" id="Times-Roman-102"/>
      <path d="M 28.65625 27.046875 
Q 23.046875 25.203125 19.390625 22.953125 
Q 12.359375 18.609375 12.359375 13.09375 
Q 12.359375 8.640625 15.28125 6.546875 
Q 17.1875 5.171875 19.53125 5.171875 
Q 22.75 5.171875 25.703125 6.984375 
Q 28.65625 8.796875 28.65625 11.578125 
z
M 3.65625 9.71875 
Q 3.65625 16.796875 10.75 21.53125 
Q 15.234375 24.46875 28.65625 29.5 
L 28.65625 33.640625 
Q 28.65625 38.625 27.6875 40.578125 
Q 26.03125 43.84375 20.796875 43.84375 
Q 18.3125 43.84375 16.0625 42.578125 
Q 13.8125 41.265625 13.8125 38.96875 
Q 13.8125 38.375 14.0625 36.984375 
Q 14.3125 35.59375 14.3125 35.203125 
Q 14.3125 32.46875 12.5 31.390625 
Q 11.46875 30.765625 10.0625 30.765625 
Q 7.859375 30.765625 6.6875 32.203125 
Q 5.515625 33.640625 5.515625 35.40625 
Q 5.515625 38.8125 9.734375 42.546875 
Q 13.96875 46.296875 22.125 46.296875 
Q 31.59375 46.296875 34.96875 40.140625 
Q 36.765625 36.765625 36.765625 30.328125 
L 36.765625 10.75 
Q 36.765625 7.90625 37.15625 6.84375 
Q 37.796875 4.9375 39.796875 4.9375 
Q 40.921875 4.9375 41.65625 5.265625 
Q 42.390625 5.609375 44.1875 6.9375 
L 44.1875 4.390625 
Q 42.625 2.484375 40.828125 1.265625 
Q 38.09375 -0.59375 35.25 -0.59375 
Q 31.9375 -0.59375 30.4375 1.5625 
Q 28.953125 3.71875 28.8125 6.6875 
Q 25.09375 3.46875 22.46875 1.90625 
Q 18.015625 -0.734375 14.015625 -0.734375 
Q 9.8125 -0.734375 6.734375 2.21875 
Q 3.65625 5.171875 3.65625 9.71875 
z
M 22.265625 46.296875 
z
" id="Times-Roman-97"/>
      <path d="M 15.484375 45.21875 
L 15.484375 13.96875 
Q 15.484375 10.640625 16.40625 8.640625 
Q 18.21875 4.9375 23.046875 4.9375 
Q 26.375 4.9375 29.546875 7.125 
Q 31.34375 8.34375 33.203125 10.5 
L 33.203125 37.25 
Q 33.203125 41.015625 31.734375 42.1875 
Q 30.28125 43.359375 25.875 43.609375 
L 25.875 45.21875 
L 41.65625 45.21875 
L 41.65625 10.84375 
Q 41.65625 7.515625 42.84375 6.265625 
Q 44.046875 5.03125 47.90625 5.171875 
L 47.90625 3.8125 
Q 45.21875 3.078125 43.9375 2.703125 
Q 42.671875 2.34375 39.703125 1.375 
Q 38.421875 0.921875 34.125 -0.734375 
Q 33.890625 -0.734375 33.84375 -0.515625 
Q 33.796875 -0.296875 33.796875 0 
L 33.796875 7.859375 
Q 30.46875 3.90625 27.734375 2 
Q 23.578125 -0.921875 18.953125 -0.921875 
Q 14.703125 -0.921875 10.9375 2.09375 
Q 7.125 5.078125 7.125 12.109375 
L 7.125 37.453125 
Q 7.125 41.359375 5.46875 42.671875 
Q 4.390625 43.5 0.875 43.84375 
L 0.875 45.21875 
z
M 25.046875 45.796875 
z
" id="Times-Roman-117"/>
     </defs>
     <g transform="translate(30.78375 282.620031)rotate(-90)scale(0.14 -0.14)">
      <use xlink:href="#Times-Roman-110"/>
      <use x="50" xlink:href="#Times-Roman-32"/>
      <use x="75" xlink:href="#Times-Roman-45"/>
      <use x="108.300781" xlink:href="#Times-Roman-115"/>
      <use x="147.216797" xlink:href="#Times-Roman-116"/>
      <use x="175" xlink:href="#Times-Roman-101"/>
      <use x="219.384766" xlink:href="#Times-Roman-112"/>
      <use x="269.384766" xlink:href="#Times-Roman-32"/>
      <use x="294.384766" xlink:href="#Times-Roman-112"/>
      <use x="344.384766" xlink:href="#Times-Roman-114"/>
      <use x="377.685547" xlink:href="#Times-Roman-101"/>
      <use x="422.070312" xlink:href="#Times-Roman-100"/>
      <use x="472.070312" xlink:href="#Times-Roman-105"/>
      <use x="499.853516" xlink:href="#Times-Roman-99"/>
      <use x="544.238281" xlink:href="#Times-Roman-116"/>
      <use x="572.021484" xlink:href="#Times-Roman-105"/>
      <use x="599.804688" xlink:href="#Times-Roman-111"/>
      <use x="649.804688" xlink:href="#Times-Roman-110"/>
      <use x="699.804688" xlink:href="#Times-Roman-32"/>
      <use x="724.804688" xlink:href="#Times-Roman-111"/>
      <use x="774.804688" xlink:href="#Times-Roman-102"/>
      <use x="808.105469" xlink:href="#Times-Roman-32"/>
      <use x="833.105469" xlink:href="#Times-Roman-115"/>
      <use x="872.021484" xlink:href="#Times-Roman-116"/>
      <use x="899.804688" xlink:href="#Times-Roman-97"/>
      <use x="944.189453" xlink:href="#Times-Roman-116"/>
      <use x="971.972656" xlink:href="#Times-Roman-101"/>
      <use x="1016.357422" xlink:href="#Times-Roman-115"/>
      <use x="1055.273438" xlink:href="#Times-Roman-32"/>
      <use x="1080.273438" xlink:href="#Times-Roman-97"/>
      <use x="1124.658203" xlink:href="#Times-Roman-110"/>
      <use x="1174.658203" xlink:href="#Times-Roman-100"/>
      <use x="1224.658203" xlink:href="#Times-Roman-32"/>
      <use x="1249.658203" xlink:href="#Times-Roman-111"/>
      <use x="1299.658203" xlink:href="#Times-Roman-117"/>
      <use x="1349.658203" xlink:href="#Times-Roman-116"/>
      <use x="1377.441406" xlink:href="#Times-Roman-112"/>
      <use x="1427.441406" xlink:href="#Times-Roman-117"/>
      <use x="1477.441406" xlink:href="#Times-Roman-116"/>
      <use x="1505.224609" xlink:href="#Times-Roman-115"/>
     </g>
    </g>
   </g>
   <g id="line2d_11"/>
   <g id="line2d_12">
    <defs>
     <path d="M 0 3.75 
C 0.994512 3.75 1.948425 3.354876 2.65165 2.65165 
C 3.354876 1.948425 3.75 0.994512 3.75 0 
C 3.75 -0.994512 3.354876 -1.948425 2.65165 -2.65165 
C 1.948425 -3.354876 0.994512 -3.75 0 -3.75 
C -0.994512 -3.75 -1.948425 -3.354876 -2.65165 -2.65165 
C -3.354876 -1.948425 -3.75 -0.994512 -3.75 0 
C -3.75 0.994512 -3.354876 1.948425 -2.65165 2.65165 
C -1.948425 3.354876 -0.994512 3.75 0 3.75 
z
" id="m4a137f07c2" style="stroke:#af1f2a;"/>
    </defs>
    <g clip-path="url(#pcdac397195)">
     <use style="fill:#af1f2a;stroke:#af1f2a;" x="59.46" xlink:href="#m4a137f07c2" y="135.630138"/>
     <use style="fill:#af1f2a;stroke:#af1f2a;" x="78.06" xlink:href="#m4a137f07c2" y="174.979662"/>
     <use style="fill:#af1f2a;stroke:#af1f2a;" x="96.66" xlink:href="#m4a137f07c2" y="212.940719"/>
     <use style="fill:#af1f2a;stroke:#af1f2a;" x="115.26" xlink:href="#m4a137f07c2" y="236.53271"/>
     <use style="fill:#af1f2a;stroke:#af1f2a;" x="133.86" xlink:href="#m4a137f07c2" y="234.526277"/>
     <use style="fill:#af1f2a;stroke:#af1f2a;" x="152.46" xlink:href="#m4a137f07c2" y="213.208388"/>
     <use style="fill:#af1f2a;stroke:#af1f2a;" x="171.06" xlink:href="#m4a137f07c2" y="188.657484"/>
     <use style="fill:#af1f2a;stroke:#af1f2a;" x="189.66" xlink:href="#m4a137f07c2" y="169.114843"/>
     <use style="fill:#af1f2a;stroke:#af1f2a;" x="208.26" xlink:href="#m4a137f07c2" y="159.504681"/>
     <use style="fill:#af1f2a;stroke:#af1f2a;" x="226.86" xlink:href="#m4a137f07c2" y="162.312953"/>
     <use style="fill:#af1f2a;stroke:#af1f2a;" x="245.46" xlink:href="#m4a137f07c2" y="173.864675"/>
     <use style="fill:#af1f2a;stroke:#af1f2a;" x="264.06" xlink:href="#m4a137f07c2" y="187.90486"/>
     <use style="fill:#af1f2a;stroke:#af1f2a;" x="282.66" xlink:href="#m4a137f07c2" y="200.112934"/>
     <use style="fill:#af1f2a;stroke:#af1f2a;" x="301.26" xlink:href="#m4a137f07c2" y="207.917621"/>
     <use style="fill:#af1f2a;stroke:#af1f2a;" x="319.86" xlink:href="#m4a137f07c2" y="209.916607"/>
     <use style="fill:#af1f2a;stroke:#af1f2a;" x="338.46" xlink:href="#m4a137f07c2" y="206.509645"/>
     <use style="fill:#af1f2a;stroke:#af1f2a;" x="357.06" xlink:href="#m4a137f07c2" y="199.775195"/>
     <use style="fill:#af1f2a;stroke:#af1f2a;" x="375.66" xlink:href="#m4a137f07c2" y="192.183036"/>
     <use style="fill:#af1f2a;stroke:#af1f2a;" x="394.26" xlink:href="#m4a137f07c2" y="185.683965"/>
     <use style="fill:#af1f2a;stroke:#af1f2a;" x="412.86" xlink:href="#m4a137f07c2" y="181.554004"/>
     <use style="fill:#af1f2a;stroke:#af1f2a;" x="431.46" xlink:href="#m4a137f07c2" y="180.358124"/>
     <use style="fill:#af1f2a;stroke:#af1f2a;" x="450.06" xlink:href="#m4a137f07c2" y="181.869285"/>
     <use style="fill:#af1f2a;stroke:#af1f2a;" x="468.66" xlink:href="#m4a137f07c2" y="185.211689"/>
     <use style="fill:#af1f2a;stroke:#af1f2a;" x="487.26" xlink:href="#m4a137f07c2" y="189.245212"/>
     <use style="fill:#af1f2a;stroke:#af1f2a;" x="505.86" xlink:href="#m4a137f07c2" y="192.923671"/>
     <use style="fill:#af1f2a;stroke:#af1f2a;" x="524.46" xlink:href="#m4a137f07c2" y="195.490632"/>
     <use style="fill:#af1f2a;stroke:#af1f2a;" x="543.06" xlink:href="#m4a137f07c2" y="196.567541"/>
     <use style="fill:#af1f2a;stroke:#af1f2a;" x="561.66" xlink:href="#m4a137f07c2" y="196.17611"/>
     <use style="fill:#af1f2a;stroke:#af1f2a;" x="580.26" xlink:href="#m4a137f07c2" y="194.673338"/>
     <use style="fill:#af1f2a;stroke:#af1f2a;" x="598.86" xlink:href="#m4a137f07c2" y="192.604938"/>
    </g>
   </g>
   <g id="line2d_13">
    <path clip-path="url(#pcdac397195)" d="M 59.46 135.630136 
L 78.06 174.543826 
L 96.66 213.861047 
L 115.26 233.596574 
L 133.86 230.358724 
L 152.46 213.013775 
L 171.06 192.444962 
L 189.66 176.344495 
L 208.26 168.242886 
L 226.86 168.758422 
L 245.46 176.40331 
L 264.06 187.966181 
L 282.66 199.197129 
L 301.26 206.189419 
L 319.86 206.869153 
L 338.46 201.736812 
L 357.06 193.440136 
L 375.66 185.472437 
L 394.26 180.700761 
L 412.86 180.378971 
L 431.46 183.947141 
L 450.06 189.534543 
L 461.8 192.8848 
" style="fill:none;stroke:#af1f2a;stroke-dasharray:12.8,3.2,2,3.2;stroke-dashoffset:0;stroke-width:2;"/>
   </g>
   <g id="line2d_14">
    <path clip-path="url(#pcdac397195)" d="M 59.46 135.630136 
L 78.06 175.103042 
L 96.66 214.207276 
L 115.26 236.921397 
L 133.86 232.399968 
L 152.46 210.77356 
L 171.06 185.641716 
L 189.66 169.288999 
L 208.26 166.082218 
L 226.86 174.617395 
L 245.46 188.119387 
L 264.06 199.466074 
L 282.66 204.273691 
L 301.26 202.225386 
L 319.86 195.838671 
L 338.46 188.934969 
L 357.06 184.638137 
L 375.66 184.162831 
L 394.26 186.739002 
L 412.86 190.507504 
L 431.46 193.557214 
L 450.06 194.748833 
L 461.8 194.292798 
" style="fill:none;stroke:#af1f2a;stroke-dasharray:5.55,2.4;stroke-dashoffset:0;stroke-width:1.5;"/>
   </g>
   <g id="line2d_15">
    <path clip-path="url(#pcdac397195)" d="M 59.46 135.630136 
L 78.06 174.543826 
L 96.66 213.861047 
L 115.26 233.596574 
L 133.86 230.358728 
L 152.46 213.013778 
L 171.06 192.444969 
L 189.66 176.344499 
L 208.26 168.242879 
L 226.86 168.75841 
L 245.46 176.403299 
L 264.06 187.966181 
L 282.66 199.197136 
L 301.26 206.189431 
L 319.86 206.869166 
L 338.46 201.736822 
L 357.06 193.440143 
L 375.66 185.472435 
L 394.26 180.70075 
L 412.86 180.378958 
L 431.46 183.947136 
L 450.06 189.53455 
L 461.8 192.884813 
" style="fill:none;stroke:#af1f2a;stroke-linecap:square;stroke-width:1.5;"/>
   </g>
   <g id="line2d_16"/>
   <g id="line2d_17">
    <defs>
     <path d="M 0 3.75 
C 0.994512 3.75 1.948425 3.354876 2.65165 2.65165 
C 3.354876 1.948425 3.75 0.994512 3.75 0 
C 3.75 -0.994512 3.354876 -1.948425 2.65165 -2.65165 
C 1.948425 -3.354876 0.994512 -3.75 0 -3.75 
C -0.994512 -3.75 -1.948425 -3.354876 -2.65165 -2.65165 
C -3.354876 -1.948425 -3.75 -0.994512 -3.75 0 
C -3.75 0.994512 -3.354876 1.948425 -2.65165 2.65165 
C -1.948425 3.354876 -0.994512 3.75 0 3.75 
z
" id="mb1a4f358aa" style="stroke:#f7d866;"/>
    </defs>
    <g clip-path="url(#pcdac397195)">
     <use style="fill:#f7d866;stroke:#f7d866;" x="59.46" xlink:href="#mb1a4f358aa" y="253.116512"/>
     <use style="fill:#f7d866;stroke:#f7d866;" x="78.06" xlink:href="#mb1a4f358aa" y="274.042591"/>
     <use style="fill:#f7d866;stroke:#f7d866;" x="96.66" xlink:href="#mb1a4f358aa" y="256.593218"/>
     <use style="fill:#f7d866;stroke:#f7d866;" x="115.26" xlink:href="#mb1a4f358aa" y="214.687334"/>
     <use style="fill:#f7d866;stroke:#f7d866;" x="133.86" xlink:href="#mb1a4f358aa" y="161.78766"/>
     <use style="fill:#f7d866;stroke:#f7d866;" x="152.46" xlink:href="#mb1a4f358aa" y="140.918779"/>
     <use style="fill:#f7d866;stroke:#f7d866;" x="171.06" xlink:href="#mb1a4f358aa" y="145.109132"/>
     <use style="fill:#f7d866;stroke:#f7d866;" x="189.66" xlink:href="#mb1a4f358aa" y="160.212489"/>
     <use style="fill:#f7d866;stroke:#f7d866;" x="208.26" xlink:href="#mb1a4f358aa" y="184.262949"/>
     <use style="fill:#f7d866;stroke:#f7d866;" x="226.86" xlink:href="#mb1a4f358aa" y="207.413093"/>
     <use style="fill:#f7d866;stroke:#f7d866;" x="245.46" xlink:href="#mb1a4f358aa" y="218.388652"/>
     <use style="fill:#f7d866;stroke:#f7d866;" x="264.06" xlink:href="#mb1a4f358aa" y="218.233761"/>
     <use style="fill:#f7d866;stroke:#f7d866;" x="282.66" xlink:href="#mb1a4f358aa" y="211.625563"/>
     <use style="fill:#f7d866;stroke:#f7d866;" x="301.26" xlink:href="#mb1a4f358aa" y="200.94831"/>
     <use style="fill:#f7d866;stroke:#f7d866;" x="319.86" xlink:href="#mb1a4f358aa" y="189.041991"/>
     <use style="fill:#f7d866;stroke:#f7d866;" x="338.46" xlink:href="#mb1a4f358aa" y="179.936536"/>
     <use style="fill:#f7d866;stroke:#f7d866;" x="357.06" xlink:href="#mb1a4f358aa" y="175.838946"/>
     <use style="fill:#f7d866;stroke:#f7d866;" x="375.66" xlink:href="#mb1a4f358aa" y="176.302226"/>
     <use style="fill:#f7d866;stroke:#f7d866;" x="394.26" xlink:href="#mb1a4f358aa" y="179.986509"/>
     <use style="fill:#f7d866;stroke:#f7d866;" x="412.86" xlink:href="#mb1a4f358aa" y="185.545712"/>
     <use style="fill:#f7d866;stroke:#f7d866;" x="431.46" xlink:href="#mb1a4f358aa" y="191.449319"/>
     <use style="fill:#f7d866;stroke:#f7d866;" x="450.06" xlink:href="#mb1a4f358aa" y="196.147756"/>
     <use style="fill:#f7d866;stroke:#f7d866;" x="468.66" xlink:href="#mb1a4f358aa" y="198.688205"/>
     <use style="fill:#f7d866;stroke:#f7d866;" x="487.26" xlink:href="#mb1a4f358aa" y="198.950107"/>
     <use style="fill:#f7d866;stroke:#f7d866;" x="505.86" xlink:href="#mb1a4f358aa" y="197.367839"/>
     <use style="fill:#f7d866;stroke:#f7d866;" x="524.46" xlink:href="#mb1a4f358aa" y="194.631826"/>
     <use style="fill:#f7d866;stroke:#f7d866;" x="543.06" xlink:href="#mb1a4f358aa" y="191.544184"/>
     <use style="fill:#f7d866;stroke:#f7d866;" x="561.66" xlink:href="#mb1a4f358aa" y="188.873314"/>
     <use style="fill:#f7d866;stroke:#f7d866;" x="580.26" xlink:href="#mb1a4f358aa" y="187.162327"/>
     <use style="fill:#f7d866;stroke:#f7d866;" x="598.86" xlink:href="#mb1a4f358aa" y="186.616673"/>
    </g>
   </g>
   <g id="line2d_18">
    <path clip-path="url(#pcdac397195)" d="M 59.46 253.116513 
L 78.06 274.947759 
L 96.66 255.77498 
L 115.26 205.052049 
L 133.86 166.995671 
L 152.46 149.544468 
L 171.06 152.659532 
L 189.66 166.205379 
L 208.26 183.652335 
L 226.86 199.886281 
L 245.46 211.362507 
L 264.06 215.047286 
L 282.66 210.12106 
L 301.26 198.826338 
L 319.86 185.911247 
L 338.46 176.446182 
L 357.06 173.601288 
L 375.66 177.528377 
L 394.26 185.761449 
L 412.86 194.618358 
L 431.46 200.798686 
L 450.06 202.511131 
L 461.8 200.826153 
" style="fill:none;stroke:#f7d866;stroke-dasharray:12.8,3.2,2,3.2;stroke-dashoffset:0;stroke-width:2;"/>
   </g>
   <g id="line2d_19">
    <path clip-path="url(#pcdac397195)" d="M 59.46 253.116513 
L 78.06 273.779059 
L 96.66 260.065186 
L 115.26 207.461407 
L 133.86 160.832714 
L 152.46 138.799646 
L 171.06 147.167732 
L 189.66 170.777135 
L 208.26 198.023202 
L 226.86 215.474347 
L 245.46 217.89132 
L 264.06 207.730677 
L 282.66 193.207529 
L 301.26 181.292298 
L 319.86 176.400832 
L 338.46 178.985331 
L 357.06 186.159258 
L 375.66 193.556387 
L 394.26 197.969991 
L 412.86 198.282999 
L 431.46 195.360719 
L 450.06 191.237822 
L 461.8 189.202944 
" style="fill:none;stroke:#f7d866;stroke-dasharray:5.55,2.4;stroke-dashoffset:0;stroke-width:1.5;"/>
   </g>
   <g id="line2d_20">
    <path clip-path="url(#pcdac397195)" d="M 59.46 253.116513 
L 78.06 274.947759 
L 96.66 255.77498 
L 115.26 205.052046 
L 133.86 166.995675 
L 152.46 149.544475 
L 171.06 152.659539 
L 189.66 166.205362 
L 208.26 183.652318 
L 226.86 199.886279 
L 245.46 211.362519 
L 264.06 215.047304 
L 282.66 210.121074 
L 301.26 198.826338 
L 319.86 185.911247 
L 338.46 176.446178 
L 357.06 173.601276 
L 375.66 177.528356 
L 394.26 185.761438 
L 412.86 194.618364 
L 431.46 200.798706 
L 450.06 202.511157 
L 461.8 200.826168 
" style="fill:none;stroke:#f7d866;stroke-linecap:square;stroke-width:1.5;"/>
   </g>
   <g id="line2d_21"/>
   <g id="line2d_22">
    <defs>
     <path d="M 0 3.75 
C 0.994512 3.75 1.948425 3.354876 2.65165 2.65165 
C 3.354876 1.948425 3.75 0.994512 3.75 0 
C 3.75 -0.994512 3.354876 -1.948425 2.65165 -2.65165 
C 1.948425 -3.354876 0.994512 -3.75 0 -3.75 
C -0.994512 -3.75 -1.948425 -3.354876 -2.65165 -2.65165 
C -3.354876 -1.948425 -3.75 -0.994512 -3.75 0 
C -3.75 0.994512 -3.354876 1.948425 -2.65165 2.65165 
C -1.948425 3.354876 -0.994512 3.75 0 3.75 
z
" id="meb9f757eb9" style="stroke:#5fac63;"/>
    </defs>
    <g clip-path="url(#pcdac397195)">
     <use style="fill:#5fac63;stroke:#5fac63;" x="59.46" xlink:href="#meb9f757eb9" y="260.962564"/>
     <use style="fill:#5fac63;stroke:#5fac63;" x="78.06" xlink:href="#meb9f757eb9" y="215.291858"/>
     <use style="fill:#5fac63;stroke:#5fac63;" x="96.66" xlink:href="#meb9f757eb9" y="148.965358"/>
     <use style="fill:#5fac63;stroke:#5fac63;" x="115.26" xlink:href="#meb9f757eb9" y="88.133806"/>
     <use style="fill:#5fac63;stroke:#5fac63;" x="133.86" xlink:href="#meb9f757eb9" y="94.157337"/>
     <use style="fill:#5fac63;stroke:#5fac63;" x="152.46" xlink:href="#meb9f757eb9" y="148.380598"/>
     <use style="fill:#5fac63;stroke:#5fac63;" x="171.06" xlink:href="#meb9f757eb9" y="194.667613"/>
     <use style="fill:#5fac63;stroke:#5fac63;" x="189.66" xlink:href="#meb9f757eb9" y="223.257009"/>
     <use style="fill:#5fac63;stroke:#5fac63;" x="208.26" xlink:href="#meb9f757eb9" y="235.330264"/>
     <use style="fill:#5fac63;stroke:#5fac63;" x="226.86" xlink:href="#meb9f757eb9" y="231.920096"/>
     <use style="fill:#5fac63;stroke:#5fac63;" x="245.46" xlink:href="#meb9f757eb9" y="216.843601"/>
     <use style="fill:#5fac63;stroke:#5fac63;" x="264.06" xlink:href="#meb9f757eb9" y="195.884869"/>
     <use style="fill:#5fac63;stroke:#5fac63;" x="282.66" xlink:href="#meb9f757eb9" y="174.77596"/>
     <use style="fill:#5fac63;stroke:#5fac63;" x="301.26" xlink:href="#meb9f757eb9" y="159.57153"/>
     <use style="fill:#5fac63;stroke:#5fac63;" x="319.86" xlink:href="#meb9f757eb9" y="155.432536"/>
     <use style="fill:#5fac63;stroke:#5fac63;" x="338.46" xlink:href="#meb9f757eb9" y="162.424501"/>
     <use style="fill:#5fac63;stroke:#5fac63;" x="357.06" xlink:href="#meb9f757eb9" y="175.401667"/>
     <use style="fill:#5fac63;stroke:#5fac63;" x="375.66" xlink:href="#meb9f757eb9" y="188.825155"/>
     <use style="fill:#5fac63;stroke:#5fac63;" x="394.26" xlink:href="#meb9f757eb9" y="199.417564"/>
     <use style="fill:#5fac63;stroke:#5fac63;" x="412.86" xlink:href="#meb9f757eb9" y="205.760634"/>
     <use style="fill:#5fac63;stroke:#5fac63;" x="431.46" xlink:href="#meb9f757eb9" y="207.544629"/>
     <use style="fill:#5fac63;stroke:#5fac63;" x="450.06" xlink:href="#meb9f757eb9" y="205.286441"/>
     <use style="fill:#5fac63;stroke:#5fac63;" x="468.66" xlink:href="#meb9f757eb9" y="200.1576"/>
     <use style="fill:#5fac63;stroke:#5fac63;" x="487.26" xlink:href="#meb9f757eb9" y="193.709843"/>
     <use style="fill:#5fac63;stroke:#5fac63;" x="505.86" xlink:href="#meb9f757eb9" y="187.567525"/>
     <use style="fill:#5fac63;stroke:#5fac63;" x="524.46" xlink:href="#meb9f757eb9" y="183.124112"/>
     <use style="fill:#5fac63;stroke:#5fac63;" x="543.06" xlink:href="#meb9f757eb9" y="181.219871"/>
     <use style="fill:#5fac63;stroke:#5fac63;" x="561.66" xlink:href="#meb9f757eb9" y="181.914813"/>
     <use style="fill:#5fac63;stroke:#5fac63;" x="580.26" xlink:href="#meb9f757eb9" y="184.553305"/>
     <use style="fill:#5fac63;stroke:#5fac63;" x="598.86" xlink:href="#meb9f757eb9" y="188.110065"/>
    </g>
   </g>
   <g id="line2d_23">
    <path clip-path="url(#pcdac397195)" d="M 59.46 261.418095 
L 78.06 214.744542 
L 96.66 144.232598 
L 115.26 88.391026 
L 133.86 110.286575 
L 152.46 153.94801 
L 171.06 194.081102 
L 189.66 222.773431 
L 208.26 233.181857 
L 226.86 216.978579 
L 245.46 191.687604 
L 264.06 173.070474 
L 282.66 165.668888 
L 301.26 168.752903 
L 319.86 180.348563 
L 338.46 193.253238 
L 357.06 200.804651 
L 375.66 201.40719 
L 394.26 197.007991 
L 412.86 190.429635 
L 431.46 184.965581 
L 450.06 182.922929 
L 461.8 183.821575 
" style="fill:none;stroke:#5fac63;stroke-dasharray:5.55,2.4;stroke-dashoffset:0;stroke-width:1.5;"/>
   </g>
   <g id="line2d_24">
    <path clip-path="url(#pcdac397195)" d="M 59.46 260.892569 
L 78.06 216.007228 
L 96.66 144.704554 
L 115.26 99.53847 
L 133.86 117.652277 
L 152.46 152.049171 
L 171.06 182.374878 
L 189.66 211.627269 
L 208.26 227.671874 
L 226.86 225.548281 
L 245.46 213.454267 
L 264.06 195.306502 
L 282.66 175.655289 
L 301.26 163.292675 
L 319.86 162.361519 
L 338.46 170.996173 
L 357.06 185.141314 
L 375.66 199.116558 
L 394.26 207.504551 
L 412.86 208.151148 
L 431.46 202.194883 
L 450.06 192.696497 
L 461.8 186.927658 
" style="fill:none;stroke:#5fac63;stroke-linecap:square;stroke-width:1.5;"/>
   </g>
   <g id="line2d_25"/>
   <g id="line2d_26"/>
   <g id="line2d_27"/>
   <g id="line2d_28"/>
   <g id="line2d_29"/>
   <g id="patch_3">
    <path d="M 57.6 307.584 
L 57.6 41.472 
" style="fill:none;stroke:#000000;stroke-linecap:square;stroke-linejoin:miter;stroke-width:0.8;"/>
   </g>
   <g id="patch_4">
    <path d="M 414.72 307.584 
L 414.72 41.472 
" style="fill:none;stroke:#000000;stroke-linecap:square;stroke-linejoin:miter;stroke-width:0.8;"/>
   </g>
   <g id="patch_5">
    <path d="M 57.6 307.584 
L 414.72 307.584 
" style="fill:none;stroke:#000000;stroke-linecap:square;stroke-linejoin:miter;stroke-width:0.8;"/>
   </g>
   <g id="patch_6">
    <path d="M 57.6 41.472 
L 414.72 41.472 
" style="fill:none;stroke:#000000;stroke-linecap:square;stroke-linejoin:miter;stroke-width:0.8;"/>
   </g>
   <g id="legend_1">
    <g id="patch_7">
     <path d="M 299.96 121.592 
L 406.92 121.592 
Q 409.72 121.592 409.72 118.792 
L 409.72 53.272 
Q 409.72 50.472 406.92 50.472 
L 299.96 50.472 
Q 297.16 50.472 297.16 53.272 
L 297.16 118.792 
Q 297.16 121.592 299.96 121.592 
z
" style="fill:#4c4c4c;opacity:0.5;stroke:#4c4c4c;stroke-linejoin:miter;"/>
    </g>
    <g id="patch_8">
     <path d="M 297.96 119.592 
L 404.92 119.592 
Q 407.72 119.592 407.72 116.792 
L 407.72 51.272 
Q 407.72 48.472 404.92 48.472 
L 297.96 48.472 
Q 295.16 48.472 295.16 51.272 
L 295.16 116.792 
Q 295.16 119.592 297.96 119.592 
z
" style="fill:#ffffff;stroke:#cccccc;stroke-linejoin:miter;"/>
    </g>
    <g id="line2d_30">
     <path d="M 300.76 61.242625 
L 328.76 61.242625 
" style="fill:none;stroke:#af1f2a;stroke-linecap:square;stroke-width:1.5;"/>
    </g>
    <g id="line2d_31"/>
    <g id="text_13">
     <!-- $x_1$$[\times 10^{0}]$ -->
     <defs>
      <path d="M 60.015625 54.6875 
L 34.90625 27.875 
L 50.296875 0 
L 39.984375 0 
L 28.421875 21.6875 
L 8.296875 0 
L -2.59375 0 
L 24.3125 28.8125 
L 10.015625 54.6875 
L 20.3125 54.6875 
L 30.8125 34.90625 
L 49.125 54.6875 
z
" id="DejaVuSans-Oblique-120"/>
      <path d="M 12.40625 8.296875 
L 28.515625 8.296875 
L 28.515625 63.921875 
L 10.984375 60.40625 
L 10.984375 69.390625 
L 28.421875 72.90625 
L 38.28125 72.90625 
L 38.28125 8.296875 
L 54.390625 8.296875 
L 54.390625 0 
L 12.40625 0 
z
" id="DejaVuSans-49"/>
      <path d="M 8.59375 75.984375 
L 29.296875 75.984375 
L 29.296875 69 
L 17.578125 69 
L 17.578125 -6.203125 
L 29.296875 -6.203125 
L 29.296875 -13.1875 
L 8.59375 -13.1875 
z
" id="DejaVuSans-91"/>
      <path d="M 70.125 53.71875 
L 47.796875 31.296875 
L 70.125 8.984375 
L 64.3125 3.078125 
L 41.890625 25.484375 
L 19.484375 3.078125 
L 13.71875 8.984375 
L 35.984375 31.296875 
L 13.71875 53.71875 
L 19.484375 59.625 
L 41.890625 37.203125 
L 64.3125 59.625 
z
" id="DejaVuSans-215"/>
      <path d="M 31.78125 66.40625 
Q 24.171875 66.40625 20.328125 58.90625 
Q 16.5 51.421875 16.5 36.375 
Q 16.5 21.390625 20.328125 13.890625 
Q 24.171875 6.390625 31.78125 6.390625 
Q 39.453125 6.390625 43.28125 13.890625 
Q 47.125 21.390625 47.125 36.375 
Q 47.125 51.421875 43.28125 58.90625 
Q 39.453125 66.40625 31.78125 66.40625 
z
M 31.78125 74.21875 
Q 44.046875 74.21875 50.515625 64.515625 
Q 56.984375 54.828125 56.984375 36.375 
Q 56.984375 17.96875 50.515625 8.265625 
Q 44.046875 -1.421875 31.78125 -1.421875 
Q 19.53125 -1.421875 13.0625 8.265625 
Q 6.59375 17.96875 6.59375 36.375 
Q 6.59375 54.828125 13.0625 64.515625 
Q 19.53125 74.21875 31.78125 74.21875 
z
" id="DejaVuSans-48"/>
      <path d="M 30.421875 75.984375 
L 30.421875 -13.1875 
L 9.71875 -13.1875 
L 9.71875 -6.203125 
L 21.390625 -6.203125 
L 21.390625 69 
L 9.71875 69 
L 9.71875 75.984375 
z
" id="DejaVuSans-93"/>
     </defs>
     <g transform="translate(339.96 66.142625)scale(0.14 -0.14)">
      <use transform="translate(0 0.765625)" xlink:href="#DejaVuSans-Oblique-120"/>
      <use transform="translate(59.179688 -15.640625)scale(0.7)" xlink:href="#DejaVuSans-49"/>
      <use transform="translate(106.450195 0.765625)" xlink:href="#DejaVuSans-91"/>
      <use transform="translate(145.463867 0.765625)" xlink:href="#DejaVuSans-215"/>
      <use transform="translate(229.25293 0.765625)" xlink:href="#DejaVuSans-49"/>
      <use transform="translate(292.875977 0.765625)" xlink:href="#DejaVuSans-48"/>
      <use transform="translate(357.456055 39.046875)scale(0.7)" xlink:href="#DejaVuSans-48"/>
      <use transform="translate(404.726562 0.765625)" xlink:href="#DejaVuSans-93"/>
     </g>
    </g>
    <g id="line2d_32">
     <path d="M 300.76 83.362625 
L 328.76 83.362625 
" style="fill:none;stroke:#f7d866;stroke-linecap:square;stroke-width:1.5;"/>
    </g>
    <g id="line2d_33"/>
    <g id="text_14">
     <!-- $x_2$$[\times 10^{0}]$ -->
     <defs>
      <path d="M 19.1875 8.296875 
L 53.609375 8.296875 
L 53.609375 0 
L 7.328125 0 
L 7.328125 8.296875 
Q 12.9375 14.109375 22.625 23.890625 
Q 32.328125 33.6875 34.8125 36.53125 
Q 39.546875 41.84375 41.421875 45.53125 
Q 43.3125 49.21875 43.3125 52.78125 
Q 43.3125 58.59375 39.234375 62.25 
Q 35.15625 65.921875 28.609375 65.921875 
Q 23.96875 65.921875 18.8125 64.3125 
Q 13.671875 62.703125 7.8125 59.421875 
L 7.8125 69.390625 
Q 13.765625 71.78125 18.9375 73 
Q 24.125 74.21875 28.421875 74.21875 
Q 39.75 74.21875 46.484375 68.546875 
Q 53.21875 62.890625 53.21875 53.421875 
Q 53.21875 48.921875 51.53125 44.890625 
Q 49.859375 40.875 45.40625 35.40625 
Q 44.1875 33.984375 37.640625 27.21875 
Q 31.109375 20.453125 19.1875 8.296875 
z
" id="DejaVuSans-50"/>
     </defs>
     <g transform="translate(339.96 88.262625)scale(0.14 -0.14)">
      <use transform="translate(0 0.765625)" xlink:href="#DejaVuSans-Oblique-120"/>
      <use transform="translate(59.179688 -15.640625)scale(0.7)" xlink:href="#DejaVuSans-50"/>
      <use transform="translate(106.450195 0.765625)" xlink:href="#DejaVuSans-91"/>
      <use transform="translate(145.463867 0.765625)" xlink:href="#DejaVuSans-215"/>
      <use transform="translate(229.25293 0.765625)" xlink:href="#DejaVuSans-49"/>
      <use transform="translate(292.875977 0.765625)" xlink:href="#DejaVuSans-48"/>
      <use transform="translate(357.456055 39.046875)scale(0.7)" xlink:href="#DejaVuSans-48"/>
      <use transform="translate(404.726562 0.765625)" xlink:href="#DejaVuSans-93"/>
     </g>
    </g>
    <g id="line2d_34">
     <path d="M 300.76 106.042625 
L 328.76 106.042625 
" style="fill:none;stroke:#5fac63;stroke-linecap:square;stroke-width:1.5;"/>
    </g>
    <g id="line2d_35"/>
    <g id="text_15">
     <!-- $y_1$$[\times 10^{0}]$ -->
     <defs>
      <path d="M 24.8125 -5.078125 
Q 18.5625 -15.578125 14.625 -18.1875 
Q 10.6875 -20.796875 4.59375 -20.796875 
L -2.484375 -20.796875 
L -0.984375 -13.28125 
L 4.203125 -13.28125 
Q 7.953125 -13.28125 10.59375 -11.234375 
Q 13.234375 -9.1875 16.5 -3.21875 
L 19.28125 2 
L 7.171875 54.6875 
L 16.703125 54.6875 
L 25.78125 12.796875 
L 50.875 54.6875 
L 60.296875 54.6875 
z
" id="DejaVuSans-Oblique-121"/>
     </defs>
     <g transform="translate(339.96 110.942625)scale(0.14 -0.14)">
      <use transform="translate(0 0.765625)" xlink:href="#DejaVuSans-Oblique-121"/>
      <use transform="translate(59.179688 -15.640625)scale(0.7)" xlink:href="#DejaVuSans-49"/>
      <use transform="translate(106.450195 0.765625)" xlink:href="#DejaVuSans-91"/>
      <use transform="translate(145.463867 0.765625)" xlink:href="#DejaVuSans-215"/>
      <use transform="translate(229.25293 0.765625)" xlink:href="#DejaVuSans-49"/>
      <use transform="translate(292.875977 0.765625)" xlink:href="#DejaVuSans-48"/>
      <use transform="translate(357.456055 39.046875)scale(0.7)" xlink:href="#DejaVuSans-48"/>
      <use transform="translate(404.726562 0.765625)" xlink:href="#DejaVuSans-93"/>
     </g>
    </g>
   </g>
   <g id="legend_2">
    <g id="patch_9">
     <path d="M 198.81375 300.584 
L 404.92 300.584 
Q 407.72 300.584 407.72 297.784 
L 407.72 239.635875 
Q 407.72 236.835875 404.92 236.835875 
L 198.81375 236.835875 
Q 196.01375 236.835875 196.01375 239.635875 
L 196.01375 297.784 
Q 196.01375 300.584 198.81375 300.584 
z
" style="fill:#ffffff;opacity:0.8;stroke:#cccccc;stroke-linejoin:miter;"/>
    </g>
    <g id="line2d_36"/>
    <g id="line2d_37">
     <defs>
      <path d="M 0 3.75 
C 0.994512 3.75 1.948425 3.354876 2.65165 2.65165 
C 3.354876 1.948425 3.75 0.994512 3.75 0 
C 3.75 -0.994512 3.354876 -1.948425 2.65165 -2.65165 
C 1.948425 -3.354876 0.994512 -3.75 0 -3.75 
C -0.994512 -3.75 -1.948425 -3.354876 -2.65165 -2.65165 
C -3.354876 -1.948425 -3.75 -0.994512 -3.75 0 
C -3.75 0.994512 -3.354876 1.948425 -2.65165 2.65165 
C -1.948425 3.354876 -0.994512 3.75 0 3.75 
z
" id="m3ba66a9b74" style="stroke:#808080;"/>
     </defs>
     <g>
      <use style="fill:#808080;stroke:#808080;" x="215.61375" xlink:href="#m3ba66a9b74" y="247.335875"/>
     </g>
    </g>
    <g id="text_16">
     <!-- Truth -->
     <defs>
      <path d="M 1.953125 66.15625 
L 58.453125 66.15625 
L 58.984375 49.171875 
L 56.59375 49.171875 
Q 54.828125 57.171875 52.125 59.59375 
Q 49.421875 62.015625 40.71875 62.015625 
L 35.15625 62.015625 
L 35.15625 10.84375 
Q 35.15625 5.03125 36.953125 3.640625 
Q 38.765625 2.25 44.875 1.8125 
L 44.875 0 
L 15.71875 0 
L 15.71875 1.8125 
Q 22.078125 2.296875 23.640625 3.90625 
Q 25.203125 5.515625 25.203125 12.015625 
L 25.203125 62.015625 
L 19.625 62.015625 
Q 11.328125 62.015625 8.328125 59.625 
Q 5.328125 57.234375 3.8125 49.171875 
L 1.375 49.171875 
z
" id="Times-Roman-84"/>
      <path d="M 0.875 1.375 
Q 4.890625 1.90625 6.125 3.34375 
Q 7.375 4.78125 7.375 10.15625 
L 7.375 57.03125 
Q 7.375 59.765625 6.65625 61.0625 
Q 5.953125 62.359375 3.21875 62.359375 
Q 2.6875 62.359375 2.171875 62.28125 
Q 1.65625 62.203125 1.03125 62.109375 
L 1.03125 63.875 
Q 3.171875 64.5 6.3125 65.40625 
Q 9.46875 66.3125 10.6875 66.703125 
L 15.375 68.171875 
L 15.484375 67.828125 
L 15.484375 37.84375 
Q 18.5625 41.359375 20.953125 43.015625 
Q 25.25 45.953125 30.21875 45.953125 
Q 38.140625 45.953125 41.015625 39.3125 
Q 42.578125 35.796875 42.578125 30.078125 
L 42.578125 10.15625 
Q 42.578125 4.984375 43.765625 3.421875 
Q 44.96875 1.859375 48.6875 1.375 
L 48.6875 0 
L 27.546875 0 
L 27.546875 1.375 
Q 31.78125 1.953125 33 3.359375 
Q 34.234375 4.78125 34.234375 10.15625 
L 34.234375 29.9375 
Q 34.234375 34.671875 32.640625 37.59375 
Q 31.0625 40.53125 26.65625 40.53125 
Q 22.859375 40.53125 19.28125 37.796875 
Q 15.71875 35.0625 15.71875 34.234375 
L 15.71875 10.15625 
Q 15.71875 4.6875 16.984375 3.3125 
Q 18.265625 1.953125 22.40625 1.375 
L 22.40625 0 
L 0.875 0 
z
" id="Times-Roman-104"/>
     </defs>
     <g transform="translate(240.81375 252.235875)scale(0.14 -0.14)">
      <use xlink:href="#Times-Roman-84"/>
      <use x="61.083984" xlink:href="#Times-Roman-114"/>
      <use x="94.384766" xlink:href="#Times-Roman-117"/>
      <use x="144.384766" xlink:href="#Times-Roman-116"/>
      <use x="172.167969" xlink:href="#Times-Roman-104"/>
     </g>
    </g>
    <g id="line2d_38">
     <path d="M 201.61375 267.18525 
L 229.61375 267.18525 
" style="fill:none;stroke:#808080;stroke-dasharray:12.8,3.2,2,3.2;stroke-dashoffset:0;stroke-width:2;"/>
    </g>
    <g id="line2d_39"/>
    <g id="text_17">
     <!-- Model 1 -->
     <defs>
      <path d="M 1.125 1.8125 
Q 7.328125 2.4375 9.078125 4.609375 
Q 10.84375 6.78125 10.84375 14.703125 
L 10.84375 55.328125 
Q 10.84375 60.75 9.125 62.375 
Q 7.421875 64.015625 1.375 64.3125 
L 1.375 66.15625 
L 21.140625 66.15625 
L 44.28125 15.71875 
L 66.40625 66.15625 
L 86.328125 66.15625 
L 86.328125 64.3125 
Q 80.765625 63.921875 79.15625 62.28125 
Q 77.546875 60.640625 77.546875 55.328125 
L 77.546875 10.84375 
Q 77.546875 5.375 79.15625 3.828125 
Q 80.765625 2.296875 86.328125 1.8125 
L 86.328125 0 
L 58.296875 0 
L 58.296875 1.8125 
Q 64.359375 2.296875 65.84375 3.984375 
Q 67.328125 5.671875 67.328125 12.015625 
L 67.328125 56.9375 
L 41.75 0 
L 40.375 0 
L 15.234375 54.59375 
L 15.234375 14.703125 
Q 15.234375 6.5 17.625 4 
Q 19.1875 2.390625 24.609375 1.8125 
L 24.609375 0 
L 1.125 0 
z
" id="Times-Roman-77"/>
      <path d="M 2.046875 1.375 
Q 6.59375 1.8125 8.203125 3.203125 
Q 9.8125 4.59375 9.8125 8.640625 
L 9.8125 56.34375 
Q 9.8125 59.578125 9.28125 60.796875 
Q 8.296875 62.84375 5.328125 62.84375 
Q 4.640625 62.84375 3.828125 62.6875 
Q 3.03125 62.546875 1.8125 62.25 
L 1.8125 63.875 
Q 8.40625 65.625 17.671875 68.5625 
Q 18.015625 68.5625 18.09375 68.265625 
Q 18.171875 67.96875 18.171875 67 
L 18.171875 8.453125 
Q 18.171875 4.203125 19.625 2.953125 
Q 21.09375 1.703125 25.6875 1.375 
L 25.6875 0 
L 2.046875 0 
z
" id="Times-Roman-108"/>
     </defs>
     <g transform="translate(240.81375 272.08525)scale(0.14 -0.14)">
      <use xlink:href="#Times-Roman-77"/>
      <use x="88.916016" xlink:href="#Times-Roman-111"/>
      <use x="138.916016" xlink:href="#Times-Roman-100"/>
      <use x="188.916016" xlink:href="#Times-Roman-101"/>
      <use x="233.300781" xlink:href="#Times-Roman-108"/>
      <use x="261.083984" xlink:href="#Times-Roman-32"/>
      <use x="286.083984" xlink:href="#Times-Roman-49"/>
     </g>
    </g>
    <g id="line2d_40">
     <path d="M 201.61375 287.034625 
L 229.61375 287.034625 
" style="fill:none;stroke:#808080;stroke-dasharray:6.4,1.6,1,1.6;stroke-dashoffset:0;"/>
    </g>
    <g id="line2d_41"/>
    <g id="text_18">
     <!-- Model 2 -->
     <g transform="translate(240.81375 291.934625)scale(0.14 -0.14)">
      <use xlink:href="#Times-Roman-77"/>
      <use x="88.916016" xlink:href="#Times-Roman-111"/>
      <use x="138.916016" xlink:href="#Times-Roman-100"/>
      <use x="188.916016" xlink:href="#Times-Roman-101"/>
      <use x="233.300781" xlink:href="#Times-Roman-108"/>
      <use x="261.083984" xlink:href="#Times-Roman-32"/>
      <use x="286.083984" xlink:href="#Times-Roman-50"/>
     </g>
    </g>
    <g id="line2d_42">
     <path d="M 315.866875 247.335875 
L 343.866875 247.335875 
" style="fill:none;stroke:#808080;stroke-dasharray:3.7,1.6;stroke-dashoffset:0;"/>
    </g>
    <g id="line2d_43"/>
    <g id="text_19">
     <!-- Model 3 -->
     <defs>
      <path d="M 7.765625 8.5 
Q 10.453125 8.5 14.859375 5.71875 
Q 19.28125 2.9375 22.359375 2.9375 
Q 29.203125 2.9375 32.515625 7.546875 
Q 35.84375 12.15625 35.84375 17.578125 
Q 35.84375 22.796875 33.15625 26.765625 
Q 28.609375 33.453125 17.828125 33.453125 
Q 17.1875 33.453125 16.59375 33.421875 
Q 16.015625 33.40625 15.234375 33.296875 
L 15.140625 34.578125 
Q 22.953125 37.40625 27.4375 41.0625 
Q 31.9375 44.734375 31.9375 50.734375 
Q 31.9375 56.0625 28.390625 58.84375 
Q 24.859375 61.625 20.3125 61.625 
Q 14.9375 61.625 10.84375 57.671875 
Q 8.59375 55.515625 6 51.03125 
L 4.5 51.375 
Q 6.453125 58.796875 11.765625 63.234375 
Q 17.09375 67.671875 24.078125 67.671875 
Q 31.546875 67.671875 35.625 63.5625 
Q 39.703125 59.46875 39.703125 54.109375 
Q 39.703125 49.359375 36.328125 45.40625 
Q 34.421875 43.171875 30.421875 40.375 
Q 35.109375 38.375 37.9375 35.6875 
Q 43.265625 30.5625 43.265625 22.703125 
Q 43.265625 13.421875 35.953125 6.34375 
Q 28.65625 -0.734375 15.1875 -0.734375 
Q 9.1875 -0.734375 6.765625 1.046875 
Q 4.34375 2.828125 4.34375 4.890625 
Q 4.34375 6.15625 5.140625 7.328125 
Q 5.953125 8.5 7.765625 8.5 
z
" id="Times-Roman-51"/>
     </defs>
     <g transform="translate(355.066875 252.235875)scale(0.14 -0.14)">
      <use xlink:href="#Times-Roman-77"/>
      <use x="88.916016" xlink:href="#Times-Roman-111"/>
      <use x="138.916016" xlink:href="#Times-Roman-100"/>
      <use x="188.916016" xlink:href="#Times-Roman-101"/>
      <use x="233.300781" xlink:href="#Times-Roman-108"/>
      <use x="261.083984" xlink:href="#Times-Roman-32"/>
      <use x="286.083984" xlink:href="#Times-Roman-51"/>
     </g>
    </g>
    <g id="line2d_44">
     <path d="M 315.866875 267.18525 
L 343.866875 267.18525 
" style="fill:none;stroke:#808080;stroke-linecap:square;"/>
    </g>
    <g id="line2d_45"/>
    <g id="text_20">
     <!-- Model 4 -->
     <g transform="translate(355.066875 272.08525)scale(0.14 -0.14)">
      <use xlink:href="#Times-Roman-77"/>
      <use x="88.916016" xlink:href="#Times-Roman-111"/>
      <use x="138.916016" xlink:href="#Times-Roman-100"/>
      <use x="188.916016" xlink:href="#Times-Roman-101"/>
      <use x="233.300781" xlink:href="#Times-Roman-108"/>
      <use x="261.083984" xlink:href="#Times-Roman-32"/>
      <use x="286.083984" xlink:href="#Times-Roman-52"/>
     </g>
    </g>
   </g>
  </g>
 </g>
 <defs>
  <clipPath id="pcdac397195">
   <rect height="266.112" width="357.12" x="57.6" y="41.472"/>
  </clipPath>
 </defs>
</svg>
